<?xml version="1.0" encoding="UTF-8" standalone="no"?>
<svg
   version="1.1"
   id="Layer_1"
   x="0px"
   y="0px"
   viewBox="0 0 111.24197 74.486353"
   xml:space="preserve"
   sodipodi:docname="resume-cv-icon.svg"
   inkscape:version="1.2.1 (9c6d41e, 2022-07-14)"
   inkscape:export-filename="resume.png"
   inkscape:export-xdpi="150"
   inkscape:export-ydpi="150"
   width="111.24199"
   height="74.486351"
   xmlns:inkscape="http://www.inkscape.org/namespaces/inkscape"
   xmlns:sodipodi="http://sodipodi.sourceforge.net/DTD/sodipodi-0.dtd"
   xmlns="http://www.w3.org/2000/svg"
   xmlns:svg="http://www.w3.org/2000/svg"><defs
     id="defs16" /><sodipodi:namedview
     id="namedview14"
     pagecolor="#ffffff"
     bordercolor="#000000"
     borderopacity="0.25"
     inkscape:showpageshadow="2"
     inkscape:pageopacity="0.0"
     inkscape:pagecheckerboard="0"
     inkscape:deskcolor="#d1d1d1"
     showgrid="false"
     inkscape:zoom="4.530717"
     inkscape:cx="42.377399"
     inkscape:cy="21.961204"
     inkscape:window-width="1920"
     inkscape:window-height="1027"
     inkscape:window-x="1920"
     inkscape:window-y="25"
     inkscape:window-maximized="1"
     inkscape:current-layer="g11" /><g
     id="g11"
     transform="translate(-18.001695,-40.680066)"><path
       d="m 126.92774,112.6032 c -0.24451,0.52751 -0.7719,0.9022 -1.39873,0.9023 l -104.339966,0.0174 c -0.84087,1.4e-4 -1.528986,-0.68005 -1.529149,-1.52856 l -0.0029,-14.829881 -0.01178,-53.295844 c -1.86e-4,-0.84087 0.680045,-1.529009 1.528559,-1.529149 l 96.351706,-0.01588 c 0.0841,-1.4e-5 0.16053,0.0076 0.23698,0.01524 3.00423,0.213458 5.34357,1.191473 7.02565,2.94933 1.66679,1.757859 2.59987,4.226779 2.78395,7.429692 0.008,0.0688 0.0153,0.129949 0.0153,0.198748 l 0.0128,58.425144 c -0.008,0.51982 -0.275,0.98616 -0.67246,1.26143 z m -9.43984,-67.229518 -94.792284,0.01561 0.01148,51.774635 0.0026,13.308663 101.832644,-0.017 -0.0126,-57.530772 -1e-5,-0.03058 c -0.13807,-2.453784 -0.79583,-4.288281 -1.95035,-5.503497 -1.13923,-1.19993 -2.84403,-1.864652 -5.09147,-2.017103 z"
       id="path9"
       sodipodi:nodetypes="cssscssscccsccccccccccccc"
       style="fill:#4f613f;fill-opacity:1;stroke:#4f613f;stroke-width:3.28704;stroke-dasharray:none;stroke-opacity:1" /><text
       xml:space="preserve"
       style="font-weight:bold;font-size:24.4311px;font-family:Arial;-inkscape-font-specification:'Arial Bold';fill:#4a5b3b;fill-opacity:1;stroke:#4a5b3b;stroke-width:1.11051;stroke-opacity:1"
       x="28.152803"
       y="103.27306"
       id="text277"><tspan
         sodipodi:role="line"
         id="tspan275"
         x="28.152803"
         y="103.27306"
         style="font-weight:normal;fill:#4a5b3b;fill-opacity:1;stroke:#4a5b3b;stroke-width:1.11051;stroke-opacity:1">Resume</tspan></text><path
       d="m 70.815789,57.2272 c -0.627411,-9.94e-4 -1.138912,-0.524085 -1.137928,-1.175477 0.0011,-0.645519 0.508318,-1.172876 1.141491,-1.171883 l 17.34317,0.02722 c 0.62741,9.94e-4 1.138911,0.524085 1.137927,1.175476 -0.0011,0.645525 -0.508318,1.172882 -1.141491,1.171883 z"
       style="fill:#4a5b3b;fill-opacity:1;stroke-width:0.581197"
       id="path1102"
       sodipodi:nodetypes="ccccccc" /><path
       d="m 71.263771,64.573845 c -0.874411,-9.94e-4 -1.587281,-0.524085 -1.585909,-1.175477 0.0015,-0.645519 0.708433,-1.172876 1.590874,-1.171883 l 24.170851,0.02722 c 0.87441,9.94e-4 1.587279,0.524085 1.585908,1.175476 -0.0015,0.645525 -0.708433,1.172882 -1.590875,1.171883 z"
       style="fill:#4a5b3b;fill-opacity:1;stroke-width:0.686128"
       id="path1102-1"
       sodipodi:nodetypes="ccccccc" /><path
       d="m 42.79486,71.175612 c 1.569107,3.541465 6.329692,3.673336 7.838968,0.03372 -0.40724,-0.448202 -0.71247,-0.930658 -1.0177,-1.406229 -0.05085,-0.07582 -0.101742,-0.158516 -0.146246,-0.234327 -0.727434,0.618427 -1.6075,1.016286 -2.754671,1.014367 -1.236397,-0.0021 -2.172507,-0.519996 -2.936212,-1.278608 -0.04455,-0.04827 -0.08908,-0.08965 -0.133639,-0.13792 -0.108811,0.330292 -0.24958,0.722496 -0.396691,1.087154 -0.153461,0.35087 -0.306881,0.681093 -0.453809,0.921817 z m 8.279279,-0.357964 c 1.674309,1.283388 5.75269,1.600015 7.319146,2.545867 0.522154,0.310693 0.986822,0.710795 1.368436,1.255337 0.788661,1.123557 2.38887,5.208983 -0.224437,5.418058 l -4.913713,-0.0086 0.615904,-7.31075 c -1.318847,-0.277599 -2.714255,-0.500247 -4.172411,-1.411487 -0.904736,4.274022 -7.017479,4.876573 -8.769643,0.102404 -1.307521,0.706959 -2.582743,1.117929 -4.106289,1.36324 l 0.939272,7.223846 -5.276983,-0.0086 c -2.612685,-0.217792 -0.994432,-4.297848 -0.208932,-5.418779 0.376781,-0.536399 0.848964,-0.934935 1.372024,-1.250768 1.562773,-0.940623 5.62292,-1.243666 7.31362,-2.507666 0.121384,-0.199463 0.255642,-0.495291 0.383551,-0.811783 0.191877,-0.474741 0.371079,-0.997692 0.486311,-1.355518 -0.470767,-0.599771 -0.871307,-1.275161 -1.259116,-1.943646 l -1.271488,-2.198424 c -0.464169,-0.751223 -0.705362,-1.44012 -0.723679,-2.004719 -0.0058,-0.268515 0.03256,-0.509423 0.128489,-0.71581 0.09592,-0.220158 0.242761,-0.405809 0.440541,-0.550063 0.08932,-0.06869 0.197746,-0.123599 0.312527,-0.171599 -0.08116,-1.191227 -0.110868,-2.692189 -0.05175,-3.945141 0.02588,-0.296018 0.0837,-0.598859 0.16061,-0.894779 0.326835,-1.259396 1.150422,-2.270105 2.164759,-2.970675 0.561392,-0.384618 1.173625,-0.672758 1.811225,-0.864477 0.401687,-0.123255 -0.05577,-1.108564 0.36492,-1.156057 2.027002,-0.223815 5.020107,1.371596 6.432589,3.026335 0.706243,0.827372 1.150791,1.929697 1.24431,3.38257 l -0.08798,3.580015 v 0 c 0.356726,0.117631 0.579444,0.358979 0.674481,0.751576 0.101353,0.43392 -0.0077,1.046501 -0.353222,1.88588 v 0 c -0.0066,0.01375 -0.01281,0.02752 -0.01919,0.04815 l -1.456788,2.586298 c -0.536705,0.949221 -1.079794,1.905314 -1.788288,2.654592 0.0636,0.09649 0.127176,0.199874 0.190762,0.303253 0.286144,0.45488 0.578647,0.916664 0.94771,1.323485 -0.0066,0.02063 0.0064,0.03444 0.01268,0.04823 z m -9.521246,-9.117756 c -0.280439,0.01332 -0.497216,0.0749 -0.643946,0.177929 -0.08295,0.0618 -0.146779,0.137457 -0.185147,0.226896 -0.04474,0.103201 -0.0641,0.227096 -0.05786,0.37169 0.01218,0.419996 0.215303,0.971131 0.603157,1.605189 l 0.0064,0.0069 1.271493,2.198408 c 0.508592,0.882122 1.049031,1.778065 1.710898,2.440124 0.642786,0.634481 1.419701,1.062646 2.44577,1.071239 1.115306,0.0018 1.931704,-0.437406 2.595476,-1.111018 0.689291,-0.694228 1.232387,-1.650329 1.769092,-2.599549 l 1.443996,-2.558775 c 0.268617,-0.660503 0.364853,-1.100976 0.307863,-1.362704 -0.03798,-0.151525 -0.190863,-0.227519 -0.464885,-0.248635 -0.05736,-9.2e-5 -0.114711,-0.0072 -0.172075,-2.8e-4 -0.06373,-1.04e-4 -0.133851,0.0067 -0.203962,0.01346 -0.03824,0.0068 -0.07649,-1.28e-4 -0.108326,-0.0072 -0.127475,0.0067 -0.261306,-4.43e-4 -0.395111,-0.02133 l 0.494107,-2.353796 c -3.659141,0.61361 -6.389035,-2.32392 -10.260025,-0.60227 l 0.276449,2.775086 c -0.146588,0.0067 -0.293166,-4.93e-4 -0.433343,-0.0214 z"
       style="fill:#4a5b3b;fill-opacity:1;stroke-width:0.66241"
       id="path1145" /><path
       d="m 72.065602,71.194103 c -1.31653,-9.94e-4 -2.389818,-0.524085 -2.387739,-1.175478 0.0025,-0.645524 1.066607,-1.172882 2.395189,-1.171883 l 39.253898,0.02964 c 1.31651,9.94e-4 2.38981,0.524085 2.38773,1.175478 -0.003,0.645523 -1.06659,1.172882 -2.39518,1.171883 z"
       style="fill:#4a5b3b;fill-opacity:1;stroke-width:0.841896"
       id="path520" /><path
       d="m 70.65236,78.005804 c -0.537308,-9.94e-4 -0.975341,-0.524086 -0.974499,-1.175478 0.0012,-0.645525 0.435311,-1.172882 0.977547,-1.171884 l 42.021402,0.06349 c 0.53732,9.94e-4 0.97536,0.524086 0.97451,1.175479 -0.001,0.645523 -0.43531,1.172881 -0.97755,1.171882 z"
       style="fill:#4a5b3b;fill-opacity:1;stroke-width:0.537844"
       id="path543" /></g></svg>
